<mxfile host="app.diagrams.net" agent="Mozilla/5.0 (Windows NT 10.0; Win64; x64) AppleWebKit/537.36 (KHTML, like Gecko) Chrome/128.0.0.0 YaBrowser/24.10.0.0 Safari/537.36" version="24.8.6">
  <diagram name="Страница — 1" id="tweM4P7HohjRkA1XxyDg">
    <mxGraphModel dx="1674" dy="805" grid="1" gridSize="10" guides="1" tooltips="1" connect="1" arrows="1" fold="1" page="1" pageScale="1" pageWidth="827" pageHeight="1169" math="0" shadow="0">
      <root>
        <mxCell id="0" />
        <mxCell id="1" parent="0" />
        <mxCell id="ltEC93IBPMsRmzGUZHMI-3" value="" style="edgeStyle=orthogonalEdgeStyle;rounded=0;orthogonalLoop=1;jettySize=auto;html=1;" edge="1" parent="1" source="ltEC93IBPMsRmzGUZHMI-1" target="ltEC93IBPMsRmzGUZHMI-2">
          <mxGeometry relative="1" as="geometry" />
        </mxCell>
        <mxCell id="ltEC93IBPMsRmzGUZHMI-1" value="Начало" style="ellipse;whiteSpace=wrap;html=1;" vertex="1" parent="1">
          <mxGeometry x="354" y="30" width="120" height="80" as="geometry" />
        </mxCell>
        <mxCell id="ltEC93IBPMsRmzGUZHMI-5" value="" style="edgeStyle=orthogonalEdgeStyle;rounded=0;orthogonalLoop=1;jettySize=auto;html=1;" edge="1" parent="1" source="ltEC93IBPMsRmzGUZHMI-2" target="ltEC93IBPMsRmzGUZHMI-4">
          <mxGeometry relative="1" as="geometry" />
        </mxCell>
        <mxCell id="ltEC93IBPMsRmzGUZHMI-2" value="Ввод X, Y" style="shape=parallelogram;perimeter=parallelogramPerimeter;whiteSpace=wrap;html=1;fixedSize=1;" vertex="1" parent="1">
          <mxGeometry x="354" y="140" width="120" height="60" as="geometry" />
        </mxCell>
        <mxCell id="ltEC93IBPMsRmzGUZHMI-7" value="" style="edgeStyle=orthogonalEdgeStyle;rounded=0;orthogonalLoop=1;jettySize=auto;html=1;" edge="1" parent="1" source="ltEC93IBPMsRmzGUZHMI-4" target="ltEC93IBPMsRmzGUZHMI-6">
          <mxGeometry relative="1" as="geometry" />
        </mxCell>
        <mxCell id="ltEC93IBPMsRmzGUZHMI-4" value="a = (X + Y) / 2" style="whiteSpace=wrap;html=1;" vertex="1" parent="1">
          <mxGeometry x="354" y="230" width="120" height="60" as="geometry" />
        </mxCell>
        <mxCell id="ltEC93IBPMsRmzGUZHMI-9" value="" style="edgeStyle=orthogonalEdgeStyle;rounded=0;orthogonalLoop=1;jettySize=auto;html=1;" edge="1" parent="1" source="ltEC93IBPMsRmzGUZHMI-6" target="ltEC93IBPMsRmzGUZHMI-8">
          <mxGeometry relative="1" as="geometry" />
        </mxCell>
        <mxCell id="ltEC93IBPMsRmzGUZHMI-6" value="b = sqrt(X * Y)&amp;nbsp;" style="whiteSpace=wrap;html=1;" vertex="1" parent="1">
          <mxGeometry x="354" y="320" width="120" height="60" as="geometry" />
        </mxCell>
        <mxCell id="ltEC93IBPMsRmzGUZHMI-11" value="" style="edgeStyle=orthogonalEdgeStyle;rounded=0;orthogonalLoop=1;jettySize=auto;html=1;" edge="1" parent="1" source="ltEC93IBPMsRmzGUZHMI-8" target="ltEC93IBPMsRmzGUZHMI-10">
          <mxGeometry relative="1" as="geometry" />
        </mxCell>
        <mxCell id="ltEC93IBPMsRmzGUZHMI-8" value="d = a + b" style="whiteSpace=wrap;html=1;" vertex="1" parent="1">
          <mxGeometry x="354" y="410" width="120" height="60" as="geometry" />
        </mxCell>
        <mxCell id="ltEC93IBPMsRmzGUZHMI-13" value="" style="edgeStyle=orthogonalEdgeStyle;rounded=0;orthogonalLoop=1;jettySize=auto;html=1;" edge="1" parent="1" source="ltEC93IBPMsRmzGUZHMI-10" target="ltEC93IBPMsRmzGUZHMI-12">
          <mxGeometry relative="1" as="geometry" />
        </mxCell>
        <mxCell id="ltEC93IBPMsRmzGUZHMI-10" value="Вывод a, b, d" style="shape=parallelogram;perimeter=parallelogramPerimeter;whiteSpace=wrap;html=1;fixedSize=1;" vertex="1" parent="1">
          <mxGeometry x="354" y="500" width="120" height="60" as="geometry" />
        </mxCell>
        <mxCell id="ltEC93IBPMsRmzGUZHMI-12" value="Конец" style="ellipse;whiteSpace=wrap;html=1;" vertex="1" parent="1">
          <mxGeometry x="361" y="590" width="106" height="80" as="geometry" />
        </mxCell>
      </root>
    </mxGraphModel>
  </diagram>
</mxfile>
